/* XPM */
static char *result[] = {
/* columns rows colors chars-per-pixel */
"64 64 155 2 ",
"   c #050C1D",
".  c #0A0E19",
"X  c #07111E",
"o  c #08111F",
"O  c #020F20",
"+  c #061423",
"@  c #091624",
"#  c #0D1926",
"$  c #0D1B29",
"%  c #131C26",
"&  c #1A1F27",
"*  c #131E2A",
"=  c #1C1F28",
"-  c #1C2027",
";  c #14212D",
":  c #1B232C",
">  c #1F282F",
",  c #142230",
"<  c #1F2A31",
"1  c #22292F",
"2  c #222C31",
"3  c #282F32",
"4  c #2D3335",
"5  c #2A333E",
"6  c #333636",
"7  c #363A37",
"8  c #373B3B",
"9  c #3A3D3B",
"0  c #423F3B",
"q  c #3D413E",
"w  c #43443F",
"e  c #2C3642",
"r  c #2F3944",
"t  c #343740",
"y  c #363A43",
"u  c #393D45",
"i  c #343E4A",
"p  c #3A3F48",
"a  c #3D4244",
"s  c #37404C",
"d  c #3B4049",
"f  c #3B4452",
"g  c #444641",
"h  c #4B4B43",
"j  c #43454F",
"k  c #514E45",
"l  c #54534A",
"z  c #5B5748",
"x  c #5D5A4D",
"c  c #444C56",
"v  c #484F57",
"b  c #464E58",
"n  c #494F5A",
"m  c #4C535D",
"M  c #50565F",
"N  c #635C4C",
"B  c #695E4E",
"V  c #625F50",
"C  c #685F50",
"Z  c #656152",
"A  c #696252",
"S  c #6E6855",
"D  c #6A6758",
"F  c #6F6C5A",
"G  c #706852",
"H  c #726D5A",
"J  c #76715D",
"K  c #7E755E",
"L  c #4E5662",
"P  c #4F5863",
"I  c #505762",
"U  c #535B65",
"Y  c #5A5E67",
"T  c #565E69",
"R  c #585F6A",
"E  c #576067",
"W  c #57606B",
"Q  c #5A626C",
"!  c #5D6572",
"~  c #5F6874",
"^  c #7C7661",
"/  c #7F7963",
"(  c #606772",
")  c #616975",
"_  c #606778",
"`  c #646C7A",
"'  c #686F7D",
"]  c #67707C",
"[  c #69717D",
"{  c #80765E",
"}  c #85795E",
"|  c #817963",
" . c #887D63",
".. c #8E8266",
"X. c #8C836A",
"o. c #928567",
"O. c #968969",
"+. c #9B8D6D",
"@. c #9F906F",
"#. c #9E9475",
"$. c #A39475",
"%. c #AB9B76",
"&. c #A49778",
"*. c #A79A7A",
"=. c #AC9D79",
"-. c #B19C75",
";. c #B4A47C",
":. c #BAA67B",
">. c #BCA87E",
",. c #686F81",
"<. c #6C7482",
"1. c #6E7887",
"2. c #6F7788",
"3. c #727985",
"4. c #747C8A",
"5. c #787F89",
"6. c #7C838B",
"7. c #7D8490",
"8. c #81868F",
"9. c #818791",
"0. c #818992",
"q. c #888F99",
"w. c #8A929D",
"e. c #B2AF85",
"r. c #B8A981",
"t. c #8D95A0",
"y. c #949DAB",
"u. c #CEB685",
"i. c #CFB887",
"p. c #CCB789",
"a. c #CEB988",
"s. c #D0B786",
"d. c #D0B887",
"f. c #D4BC8A",
"g. c #D9BE8A",
"h. c #D6C08F",
"j. c #DDC28D",
"k. c #DEC590",
"l. c #DDC995",
"z. c #E2C68F",
"x. c #E5C88F",
"c. c #E2C790",
"v. c #E4CA92",
"b. c #EBCD93",
"n. c #E9CF99",
"m. c #F0CF93",
"M. c #E4D296",
"N. c #EED095",
"B. c #E6D299",
"V. c #EDD29A",
"C. c #F3D296",
"Z. c #F8D597",
"A. c #F4D599",
"S. c #F4D99C",
"D. c #F9DD9D",
/* pixels */
"6.3.[ [ ] [ [ ] ) ~ ) ) ) ` ) ) _ ` ' ' [ <.3.3.5.5.4.<.` ` [ [ Y ] [ ` ' 3.3.3.[ ] ` ` ` ) ' ) ` ' ) ` ) ] [ <.1.[ ] ~ Q ] <.1.",
"6.' Q U P M U P P P P U U U U U U U T T T Q Q Q Q Q W T T Q ) ) U Q Q Q U Q Q Q Q Q E Y E U U Q U E U U U U E W W U P M M P ! ` ",
"6.( M m m m m M m M P I U U U U U T T U U U Q U E U U U T U Q Q U ! Q U U Y U U Q U Q U U E U U U T U U M P U I P M M m m M E ! ",
"6.! m m m m m m P M P I U U T U U U R T Q R T T E E E W Y T Q Q U Q Q U U U U E U E T T Q U R U U U E U U U U I I M M P M M M Q ",
"6.Q M m m m m M M U P U U U E T T T R T R Q T T Q E Q U U Q R Q I ! Q T W U T Q T T Q T W T T T Q U U Y U U U I I I I I m m I Q ",
"6.Q M M M m M m M I I U U E T W W W Q Q Q Q Q W Q Q Q T Q U R Q I Q Q W Q Q Q Q Q Q Q Q Q Q Q T Q Q Q E U U U I U I I L M m U Q ",
"6.( M M M U I M M P U U U E W U W Q Q Q Q ! Q W T Q Q T T U Q Q P Q Q W W Q U Q Q T Q Q Q Q Q Q Q Q U U R U U U I I L I L U U Q ",
"6.Q E M P P I U U E U E W Q Q Q W ! ! ! ! Q ! Q Q Q Q Q Q Q ) Q I Q ! Q Q W Q Q Q ! ~ ! ! ! ! W Q Q Q Q Q Q Q U U U U U U T Q ) ",
"4.! T P P T U U U E T T T W T T W ! ! ! W W W W T T T U T T Q R P T W T T T T T T T W W T T Q T T W Q Q W T U T Q T T U T T W W ",
"4.Q P L L P P L P P P L P P P L n L P L P P L L P L L L P U I I L L P P L U P P P P P P L I U L n L L P P P L L L L L L P P L T ",
"t.2.,.,.,.,.[ 3.<.,.,.<.,.,.,.,.Q ) ' ) ,.~ ` ` ` ` ' ' <.,.[ [ <.<.<.<.<.<.<.3.2.<.,.,.] [ <.) T ~ ,.` ,.` [ ] ' _ ) _ ` ' ,.2.",
"w.' ! ! ! ! ~ ) ! W ! ) _ ~ ~ ! R ( ) R T T W ! R ! Q ! ! ) ( ) ~ _ ~ ~ ) ] [ 3.<.,.~ ! ) ` <.' T ~ _ ! Q Q ! Q ! ! ! Q Q ! _ <.",
"8.Q U U I M M I M m m M L I R R U Q T I m m M U U I I U U E E E W W Q Y E Q Q Q T T U I U U ! ! T Q Q T U U I U U E E U T U T Q ",
"8.Y M U U U M m m m n n n n I U U U I L M M M M I U U E U Y E E W T Q Q Q U Q U U U I I I m U Q T W R P U U I I U U U U U T U U ",
"8.! E Y U U U M M m n m n b L I U I L m m M M I I I I E Q E Q Q Q Q Q Q Q Q U U U U I I I M E Q T Q R U U U U U U E E E U T T T ",
"8.Q Q I U U M U I m m L m n I U P P m m m L I I U U U Q U W Q Q Q Q Q Q Q W Q U U U U U I I Q ! T R R U U U T U U Q U Q Q Q T R ",
"8.Q E U U T U I L L L m m m L U U I M m m P I U T U W Q Q Q Q Q ~ Q Q Q Q Q Q T W U U U U L Q ! U T T U U T R T R Q Q Q W Q T Q ",
"8.( W E T U E U P L L m m m U U L I U I P M M U U T W Q Q Q ! Q Q Q Q Q Q Q Q Q W E U U I U W T L U T T P T R R Q T T W Q Q Q T ",
"8.) Q W W T W T U L i $ * , ; , ; ; ; ; ; * * ; , , , , ; ; , ; ; ; , ; ; * $ * ; ; ; ; ; ; , , ; ; , $ * , i W Q ! ! ! ! ! Q ! ",
"6.E M U P P P P P n e + X . . . . . . . . + X X . . . . . . . X + X . O @ + + + . X X +   . . . . O + + + @ e L I U L P L L L U ",
"6.Q T T T T W T U P e @ g ^ ^ ^ ^ ^ K | x ; : D ^ ^ ^ ^ ^ ^ K a * x J 8 O @ + > F J 8 # k K ^ ^ | F 2 @ @ # e W T T T T T T T T ",
"8.[ ' ) ~ ~ _ ~ ~ ! i $ ^ B.V.A.A.V.V.S.*.3 4 p.A.C.A.V.A.V.B.H > *.l.C   @ + 8 h.v.C - +.n.V.C.A.f.u @ @ $ i ` ` ` _ ~ _ _ ' ' ",
"8.[ ! Q T T T T U U t # { b.m.m.C.C.m.Z.%.3 4 u.C.m.m.C.m.C.b.H : %.j.A   @ + 9 g.x.B - +.m.m.m.C.g.u @ @ # i Q ! T T U U W ) ] ",
"8.) I m m m m L m m e # { m.C.C.C.C.C.D.-.3 4 i.Z.A.A.A.C.C.C.H > %.v.A   @ + 9 g.v.B & @.C.C.C.Z.g.0 O + # e m m L m m b m U Q ",
"6.! m v n L m m L m e # { m.C.n.B.n.n.V.%.3 6 s.C.V.n.n.B.n.n.F > %.v.B   @ + 9 g.b.B & +.m.n.n.n.f.w # @ # 5 L L m m m m b m Q ",
"6.Q m M n m L L I I e # { b.u.H C Z A A h ; 4 u.x. .Z A Z Z Z 6 ; %.z.Z   @ + 8 g.x.B & +.b.O.V C S o.$.C % e I L m m m m m I ) ",
"6.Q v m m L L I I L e # K b.:.2 # $ $ # # + 4 d.j.h # # # # @ + ; =.z.B   @ + 8 g.x.B & O.M.C # # 3 :.N.o.* e I P P m m m m W ` ",
"6.Y M m m L I I I I e # { b.:.1 + @ @ @ @ @ 4 d.z.g # @ @ + + + % =.x.A   @ + 8 g.x.B & O.M.C + @ 2 :.A.o.; t I U I I m m m U ) ",
"5.Q U I I I U U U I e # ^ n.-.1 @ @ # + + + 4 d.j.g @ @ @ @ + + ; =.v.C   @ + 8 g.b.N & O.M.N X @ 3 r.S.O.* r U P T P L m L T W ",
"6.Q T U I I P P T I e # { b.u.G N x z 3 + + 4 u.z.} N N N 9 + + ; %.z.C   @ + 8 f.z.B & O.N.O.N N A #.e.F * r T W W W T U T T T ",
"3.Y I I n I L L I L e # K b.m.b.v.M.f.x # @ 4 s.C.n.b.b.j...% X ; %.z.Z X + + y g.b.B - @.N.b.b.M.d.k 1 * $ r P T T T L P U U I ",
"8.Q R T T T T T T P e # | b.m.Z.A.Z.z.x # + 4 s.C.C.C.C.N.O.% + ; =.v.Z   + + q g.b.B - @.b.C.A.A.f.q + + $ r L L T T W T T T Q ",
"y.7.4.4.<.<.<.[ ,.] s % { N.C.C.C.C.z.x # + 4 i.C.C.C.C.b.O.$   ; -.x.A X + + q g.b.B = +.m.C.N.C.g.q @ @ $ s ~ ) ` ` ] ] ,.1.6.",
"w.[ _ ! W ! W E W W r # { N.C.C.C.A.k.x # @ 4 u.A.C.C.C.b.O.* + ; =.x.A X + + 8 g.b.N = +.C.C.A.A.f.w X o # 5 m P P P P T W ! ~ ",
"6.Q W U T T Y U E L e $ K b.j.$.#.$.O.q @ @ 4 u.b.;.@.@.+.Z #   ; %.j.Z X @ + 8 f.c.B = +.b.>.@.@.+.S N 9 # 5 v v m M M P P P P ",
"6.Q U T W W E E U P 5 # K v.>.4 % % ; # + + 4 u.j.h ; % ; # + + ; %.j.Z   @ + 8 f.c.N = O.M.A % % 4 -.b...% 5 v m M M M P T P T ",
"6.Q T R Q Q E E E U r $ { N.>.> + @ + + + + 6 f.j.g + + + + + + ; =.v.A   @ + 8 g.v.C = O.M.C O @ 2 >.A.O.; 5 v M I I I E T U T ",
"0.) Q Q ! Q E Q W U r # K N.>.1 + + + + + + 4 i.j.w + + + + + O ; =.v.Z   + + 8 j.v.C = +.M.V @ + < >.S.O.% 5 m P m I I U E T W ",
"8.) Q Q Q Q Q Q W E r @ K b.>.> + + @ + + + 4 d.z.Z 9 8 8 7 8 : ; X.;.S 6 9 8 l ;.r.l = O.B.V O + < :.A.O.; 4 m M I U U U T T W ",
"9.) Q Q Q ! ~ Q Q E r # K b.>.> + + @ + + @ 4 u.N.g.i.i.p.u.p.C $ < 8 X.f.p.a.;.g 3 * ; O.M.x + @ < :.A.O.; 5 m M U I U Q W W Q ",
"0.) Q Q Q ! ! W T U r $ ^ M.:.> + + + + + @ 5 a.Z.C.A.Z.A.Z.C.^ $ + % O.D.A.Z.s.1 + + ; O.B.x + + 2 :.S.o.; 5 m P E T T T T T W ",
"5.Y L L L L P P L L e @ K b.>.1 + + + + + + 4 i.C.C.C.C.C.C.n.H # + * O.S.n.C.u.2 + X ; O.B.Z + + 2 >.A.O.* 5 m m L L P L L L P ",
"6.) ! ) ~ ,.` ~ ~ ~ s # K B.>.: + + + + + + 4 f.Z.A.A.C.Z.A.A.J $ @ * O.D.C.A.f.2 + + : +.B.V O + 2 :.D.O.; i ( ` ] [ ] _ ~ ~ ! ",
"9.3.[ <.<.2.4.4.4.1.f $ l &.| > + + + + + + > ..&.&.&.&.&.&.$.l # + % Z *.$.$.X.> + + * Z #.g + + ; ^ &.C ; s ) <.1.4.<.' ' ,.,.",
"8.[ ( ( ! ~ ~ _ ` ~ s + ; - ; @ + + + + + + # ; - - - = = = = # + + + % - - - & + + + + % - # + + + % - % $ e E Q Q Q Q Q ! ! ) ",
"8.` Q ( ! ! R ! Q Q r + X @ X + + + + + + + + o @ + @ @ @ @ @ + + + @ + @ @ + @ + + + + @ @ + @ + @ @ @ + # e U E E Q Q R R Q ) ",
"6.( ( Q ! Q ! Q Q Q E P P P P P L M M L m m m m m m n n c c b m b m b c c c c b b b n n m m m n m m m m M P U U W Q Q W Q Q Q ! ",
"8.( Q ! ! ! ! ! Q ! ! ~ Q Q Q Q W W E E E U U E U I I I M I I U m U m m m m m L L I I I U U U U U W U W U T W T W Q Q E Q Q ! Q ",
"6.( ( ! ~ ! ! ! ! Q Q ) Q Q Q Q W W T R T T R U U U U M L L L I m I L m m L L L I I U L U T T U W W R U T T T T T ! W Q Q ! ! ! ",
"6.) Q ( ~ ~ ~ ! ( Q Q ! ) Q ) Q ! W W R R T U U U U U I L L L U m I I L m L L P U U U U U U U T W U Q Q T P T ! Q Q ! Q Q ! ! ! ",
"8.) ( ( _ ) ~ ) ) ~ _ ( ~ ~ ! Q ! ! ! ! Q T T T U U U M L U W T I U T I m m L P U U U T T T T T T T R Q W _ W W Q Q ! Q ! ! ! ! ",
"5.! E E T T T ! Q Q W T T T T Q T T T T U U L U U U I P P T T P m U I L L n n L L L I L I U U U T U U U T T T P T T T T T W W Q ",
"5.Y I U U L L P P I L I U L U L n L L P P P L P L L P P P P P P L L P L L L L L L L L L M I I L m L P P P P L L P P L I L P T T ",
"w.] ` ) _ ~ ~ ! _ ! ~ ( ~ ) _ W T Q ~ ~ ! ~ ` [ ,.,.' _ ,.~ ` ` ~ _ ` ~ _ ~ ! ! ~ _ _ ~ _ _ ) ! P T ~ ! ,.,._ ,.,.,.` ` ! _ _ ,.",
"q.` ! Q ~ ~ ! ! ! ! Q Q R Q _ ) Q ! ! T T W ) ] ] ] ) ! ! ~ _ ~ ~ ~ ~ ~ ~ ~ ~ _ ~ ! ~ ) ` _ ` _ T T ! W P W _ ,.<.<.<._ ! _ _ ` ",
"6.Q Y I U U P P L L I m L m U T U P U L n L M I U U U I L P T U T T T T U T T T U T T T T Y ! T L L L b b L n L T T U U I U P U ",
"8.Q E U U U U P M m I L n n I U I I M m n n v m m M M M I U U U P U T U U U E E T T T T T T Q T I M n n m m m m L I I I I U I U ",
"8.Q E U U U U U U U U I I m I U I M m n m m m M M M U I U U U U T U T T W E Q Q W W T T R R Q T I I I n n m m L U I U U U U U Y ",
"8.( Q T W T T T U T U I I I U U I I m n n m m m M I I U U U U T T T T W R Q Q Q Q T T T Q Q ! T I L L n m m L U U P P U U U U Y ",
"8.( Q U E W T T R U U I I I I I I I L n n m M M I M M U I U U T T T R R Q ! Q Q T Q ! Q Q Q R T L L I m m L P P U U U R Y Y R R ",
"8.) Q E T W W T T U U P L L U I P U U m m m M m I I M E P U U T T W R R Q Q Q Q T Q Q Q Q Q Q U m m M M L P P E U U E E U Q W Q ",
"8.) E ( ! Q ! T E W T U L L T U P U T L m m m m I I P U L T T W W W Q Q ! ! ! Q ! ! ! ! ! ! _ U L L I I U U U U W W W E W W W ! ",
"8.Q U U U P T P P U U I L L I L m m L n b m m m m m m L L m L L P T P U U P P P U T U U U U U L n n m L L L P P P U U P M U P U ",
"Y j u a p i p u p p d p p p p u y y y y y 8 y y y y y y y u y u u u u u i i y y y u u u u y u y t y u u u u s s s s d y a d y d "
};
