/* XPM */
static char *result[] = {
/* columns rows colors chars-per-pixel */
"64 64 212 2 ",
"   c #09131F",
".  c #07111C",
"X  c #15131D",
"o  c #1A131C",
"O  c #0A0F19",
"+  c #24151D",
"@  c #2D171D",
"#  c #2E181E",
"$  c #381A19",
"%  c #0A1521",
"&  c #0D1925",
"*  c #0F1A29",
"=  c #161720",
"-  c #161922",
";  c #1B1B23",
":  c #131E2A",
">  c #1D1F29",
",  c #1E1720",
"<  c #221C25",
"1  c #231F28",
"2  c #2B1D24",
"3  c #351D22",
"4  c #391E22",
"5  c #15212D",
"6  c #1C222A",
"7  c #1C2227",
"8  c #162532",
"9  c #182633",
"0  c #1D2D3B",
"q  c #1B2A37",
"w  c #1F303F",
"e  c #23232C",
"r  c #2A242D",
"t  c #26282F",
"y  c #262630",
"u  c #252933",
"i  c #2A2B34",
"p  c #2C2B35",
"a  c #20303F",
"s  c #2A343D",
"d  c #34353E",
"f  c #36383B",
"g  c #43140F",
"h  c #481A15",
"j  c #451D1D",
"k  c #461A16",
"l  c #521E19",
"z  c #55211B",
"x  c #5B241E",
"c  c #562A1F",
"v  c #452323",
"b  c #492121",
"n  c #4F2927",
"m  c #552321",
"M  c #5D2621",
"N  c #5E2B24",
"B  c #552C29",
"V  c #552A27",
"C  c #5F322F",
"Z  c #652722",
"A  c #682722",
"S  c #642A24",
"D  c #6B2A23",
"F  c #6C2F28",
"G  c #732D25",
"H  c #792F26",
"J  c #712F28",
"K  c #64342A",
"L  c #6D332A",
"P  c #68372B",
"I  c #76332A",
"U  c #7B342A",
"Y  c #773228",
"T  c #733F32",
"R  c #6B4434",
"E  c #754133",
"W  c #784939",
"Q  c #7C503D",
"!  c #223343",
"~  c #2B3440",
"^  c #343740",
"/  c #353942",
"(  c #393C45",
")  c #3C3F48",
"_  c #353E49",
"`  c #3D414A",
"'  c #3A4047",
"]  c #3E4651",
"[  c #29466A",
"{  c #354B6B",
"}  c #345070",
"|  c #41444E",
" . c #424A54",
".. c #484F59",
"X. c #434B56",
"o. c #4C535D",
"O. c #4C5253",
"+. c #51555F",
"@. c #7A5443",
"#. c #7D6655",
"$. c #4E5662",
"%. c #4F5861",
"&. c #505762",
"*. c #535A65",
"=. c #555D69",
"-. c #585F6A",
";. c #5C5D67",
":. c #435976",
">. c #57606B",
",. c #5A626C",
"<. c #576067",
"1. c #5D6571",
"2. c #576678",
"3. c #616772",
"4. c #626A75",
"5. c #646C79",
"6. c #686F7C",
"7. c #69717D",
"8. c #66707E",
"9. c #82352A",
"0. c #89372B",
"q. c #85382C",
"w. c #8C3A2D",
"e. c #923C2E",
"r. c #993E2F",
"t. c #973F30",
"y. c #993F30",
"u. c #974030",
"i. c #994030",
"p. c #85543E",
"a. c #A44733",
"s. c #B5543F",
"d. c #825242",
"f. c #835841",
"g. c #8E5E46",
"h. c #885C49",
"j. c #905F47",
"k. c #885D53",
"l. c #AE5541",
"z. c #8A624C",
"x. c #946C4D",
"c. c #996A4E",
"v. c #94654A",
"b. c #956D53",
"n. c #966C58",
"m. c #9B7358",
"M. c #8F6558",
"N. c #A27556",
"B. c #A57A5A",
"V. c #A37758",
"C. c #B06752",
"Z. c #967B62",
"A. c #A27E60",
"S. c #A7835E",
"D. c #A7836D",
"F. c #AB876C",
"G. c #A98463",
"H. c #B18663",
"J. c #B38965",
"K. c #B68D69",
"L. c #B6936C",
"P. c #BF966D",
"I. c #A98772",
"U. c #A78472",
"Y. c #B59272",
"T. c #BB9A78",
"R. c #AF916E",
"E. c #B7A07C",
"W. c #C19A71",
"Q. c #C1976F",
"!. c #C8A67A",
"~. c #D2AE7F",
"^. c #6C7481",
"/. c #737A84",
"(. c #797D85",
"). c #767D89",
"_. c #757B87",
"`. c #686F81",
"'. c #7C838B",
"]. c #7D8490",
"[. c #81868F",
"{. c #838A93",
"}. c #8A929E",
"|. c #B2B19F",
" X c #B9B6A7",
".X c #BABDB4",
"XX c #949DAB",
"oX c #C1A481",
"OX c #C4AA84",
"+X c #CDB285",
"@X c #D9B684",
"#X c #D1B588",
"$X c #D9B887",
"%X c #C7B399",
"&X c #D6BB91",
"*X c #C0A796",
"=X c #C7BAA7",
"-X c #DEC496",
";X c #E2C394",
":X c #ECCC94",
">X c #E7CD9C",
",X c #EDD29D",
"<X c #EAC88F",
"1X c #D7CFB6",
"2X c #EDD7AA",
"3X c #EED8AB",
"4X c #EDD2A1",
"5X c #F1D9A5",
"6X c #F2DBAA",
"7X c #F1D7A2",
"8X c #E4CAB4",
"9X c #F5E2AE",
/* pixels */
"'./.7.7.5.^.7.5.4.4.3.3.5.5.5.3.3.5.5.7.^.^.^._.).).).^.5.5.^.6.;.7.`.5.6./././.7.7.6.5.4.5.4.5.6.5.5.4.5.5.7.^./.^.5.5.,.5.^./.",
"'.6.,.*.$.$.$.$.o.$.$.&.&.$.*.$.&.&.*.*.*.=.-.;.-.=.=.=.&.-.3.3.&.-.-.*.*.-.-.=.*.*.*.*.*.*.*.*.&.*.*.+.+.&.<.<.=.*.&.o.+.*.1.5.",
"'.3.o.` / / / ( ( ( ( ( ( ( ) ) ) ) ) ) ) ` ` ` ` ) ( ) ` ` ` ` ) | | ( ) ( ) ) ) | ' ' | ' ' ) ) ) ` ' | ..&.&.$.%.$.$.o.%.<.1.",
"'.,.o.e , < < < < , ; < < < < < < < < < < < < < < < < < < < < < < < < < < < < < < < < + + < < < < < < < t ` &.$.$.%.o.&.+.+.+.,.",
"'.<.O.e + + + + + + + + + + + + + + + + + + + + + + + + + + + + + + + + + + + + + + + + + + + + @ + + + r ( o.$.&.&.&.+.o.o.&.,.",
"/.f r U e.e.e.e.w.e.w.e.e.e.w.e.e.w.e.e.e.w.e.e.t.e.w.e.w.t.e.e.e.e.w.e.w.t.e.e.e.e.e.e.e.e.w.e.e.w.w.e.q.K t i &.&.&.$.o.$.&.,.",
"/.r + 9.u.r.u.u.y.y.t.t.t.t.y.y.t.t.r.t.u.u.r.y.t.y.y.y.y.y.y.r.t.e.r.y.r.y.t.t.r.r.e.r.e.r.u.u.r.u.t.r.t.F o t &.&.$.*.*.$.=.,.",
"/.r + 9.u.e.e.e.e.t.w.t.t.e.t.t.t.e.e.e.e.r.e.e.w.e.e.e.e.e.e.e.e.e.e.e.e.e.e.w.e.e.e.e.e.e.e.e.e.e.e.e.w.M o u *.*.*.*.*.=.,.3.",
"/.r o S D D D D A D D D D D D A D D S D D D D D D D D D D D D G A A D D D D A D A D D A D D D D D D D D D b o i *.<.*.*.=.=.>.2.",
"/.r + b x x x x x Z x x x x x x M x x x M c x M c Z x c z Z c c Z x x x M M x x x x x z c x x x x M M x x b o t $.$.$.$.&.$.$.&.",
"{.r + m x x z N.W.P.p.x z g.W.W.B.R x W L.M.E oXQ.Q.S.F L K.P.T.L.E H.W.W.W.K h m.W z c.p.x v.W.W.!.Z.x c b o p 5.5.2.5.6.6.`._.",
"{.r o c x N R !.,X:Xv.l E T.>X&X!.z.z g.;XD.d.2X:X5X$XL E ;X5X3X>Xd.~.:X5X3XR $ L.p.z K.x.z B.:X4X9XOXK M j o i 1.1.1.,.>.1.5.`.",
"'.r + z x @.R.S.c.!.v.l x.-XE.h.A.B.h g.;XD.p.2X$Xm.z.S E @XE.m.M.T ~.:XH.n.K k L.p.z J.x.z B.W.b.E.>XG.x b o t *.<.*.*.=.=.*.-.",
"(.r o z x #.#Xv.x b.Q z B.4XI.M c.S.g j.;XD.@.3X~.F Z x E ~.Z.K x S ~.<Xp.S M h L.p.z J.x.z S.S.N b.9XE.x b o u *.*.<.*.=.=.&.=.",
"(.r o m Z #.#Xj.x P F z B.,XF.M c.S.g j.;XI.d.3X$XH.m.S E $X!.H.V.T ~.:XQ.H.T h L.f.c J.x.z B.S.c b.9XOXx b o t *.*.<.<.*.=.=.-.",
"(.r o m M #.#Xj.M M x x V.,XF.M c.S.g j.;XI.d.5X:X<X~.T E $X:X<X~.p.~.:X7X5Xg.h L.f.z J.x.c B.!.S.!.&Xb.x b o e *.,.<.<.,.>.=.-.",
"'.r o z M #.#Xz.Z d.T l B.4XF.x c.S.g j.;XI.d.3X$XB.c.S T @XE.B.c.T ~.:XY.D.T h L.f.z K.b.l B.:X:X<XL.c M b o t *.>.,.,.,.>.>.,.",
"'.r + m M k.&Xb.L Q.g.l B.7XY.P V.G.g j.;XF.@.3XoXS Z x T +XZ.K z F ~.:XY.D.C k L.L.m.#Xb.l B.~.S.!.+Xh.z b o u ,.,.>.>.,.>.>.,.",
"'.r + m M W Z.F.A.$Xc.l f.~.+XG.L.x.l g.-XU.d.2XW.S x x U +Xm.K x S ~.:X6X9XR h T.,X>XoXW l B.B.V b.6X!.M b o u ,.>.,.>.1.1.>.1.",
"(.r o x M x z c.A.Y.d.x x f.H.J.m.R x W A.k.T Y.C.Z x x L B.@.C z Z N.J.J.J.F l n.K.J.W l x d.d.c Q Y.n.x b o t $.$.=.*.$.&.$.=.",
"/.r o z x x x Z Z M M M x x Z Z Z Z x M Z M l Z x x x x x x x x c x x M M M M M M M M x x x x x z x M x x b o y =.-.-.-.=.=.*.-.",
"(.p o c M x x x x l l M x x x l l l x l M M M M x z x z x x x l x x x x x l l M l M Z l l l x x x x x x M b , p 5.5.2.3.3.5.5.`.",
"(.p + j j j b j j j j j j j j j j j j j j j j j j j j j j j j j j j k b j j j k j j j j j j j j b j j k j 4 o i -.*. .] ] -.5.5.",
"(.r o o o o o o o o o o o o o o o o o o o o o o o o o o o o o o o o o o o o X o o o o o o X o o o o o o o o o e $.] & & 5 X.*.1.",
"(.f r < o @ # # @ @ @ @ 3 @ @ @ 3 @ @ @ 2 @ @ 3 @ 2 @ @ 2 @ @ @ @ @ @ @ @ + + @ 3 @ + @ @ @ 3 @ @ 2 @ @ o , t s _ _ 5 : 8 / ] -.",
"(.,...< o m S Z Z M m M A A Z A A A A A A Z Z l z A A A A A A A Z Z A A A Z M Z Z A A A A A A A A A A m o r *.] O & ! ! ! O = =.",
"'.-...1 o m Z Z Z m l M A A A A A A A A A A S m x A A A A A A A Z A A A A M l Z A A A Z A A A A A A G M o y =.] % % ! ! 0 . : >.",
"'.-...> o M D D D Z M A D F G F D G D G D G F S A G D D D G D F D D G G D Z Z D D G D F D D G D D G H S X e ..' % % 0 0 q % : -.",
"(.,.&.; o Y w.0.w.w.0.0.0.0.w.w.0.0.w.w.w.w.w.q.0.0.0.0.w.w.w.0.w.w.w.w.w.w.w.0.0.w.w.w.0.U 0.w.w.w.e.Y X X & % % . . . % % * $.",
"(.3.=.; o I t.w.w.w.w.w.w.w.w.t.w.e.w.w.w.w.w.w.e.0.e.w.w.w.0.t.w.w.w.e.w.w.w.w.w.w.w.w.0.0.w.w.w.w.e.I X X %   %     % % % : o.",
"(.=.$.> o I w.w.w.9.I I I I I I I U U I I I I I I I U I I 9.0.w.w.w.U U I I I I I U I I I I 9.w.0.0.w.G X o 5 :   & s s : % : ..",
"].1.=.> o I e.w.w.v = - - - - - - - - - - - ; - - = - - - 1 U w.w.I 2 - - - - - - - - = - - b G D D G Z X y %.]   f =X X[ % : $.",
"XX].^.y o I 0.9.0.4 % % & - & % : * & & & & : : * & & & % = I 0.w.L ; & & & & & & & & & & % v H F D H Z X i 5.$.% f =X=X`.  5 8.",
"}.^.3.e o x D S Z + % 8 ! ! ! ! ! ! ! ! ! ! ! ! ! ! ! 0 % - M D D N , q 0 0 0 0 0 0 0 0 w 5 n w.9.9.0.A X y $.]   & { :.XX7 5 >.",
"'.1.*.< o M D D A 2   8 ! ! ! ! ! ! ! ! ! ! ! ! ! ! ! 0   = M A Z m > 0 0 0 0 q 0 0 0 0 w 5 n t.w.0.e.J X e ..` % & [ } |.7 5 ..",
"'.>.*.> o S H G H @ % 8 w ! ! ! ! ! ! ! ! ! ! ! ! ! ! 0   = S G Y S < 0 0 0 q 0 0 0 0 0 w 5 B y.w.w.t.I o 6 ..`   : [ `.|.7 5 ..",
"'.,.*.1 o I 0.0.0.4   9 ! ! ! ! ! ! ! ! ! ! ! ! ! ! ! a   , I 0.q.I < 0 w ! w ! ! ! ! ! ! 8 B y.w.w.t.J = > ..] & f =X=XN.o 5 O.",
"[.4.-.e o I e.0.w.4   9 ! ! ! ! ! ! ! ! ! ! ! ! ! ! ! 0   = I w.w.I < ! ! ! ! ! ! ! ! ! ! 8 B y.w.w.t.I X y o.] & ' 8X8XC.o : %.",
"].4.-.> o I e.w.w.4   8 ! ! ! ! ! ! ! ! ! ! ! ! ! ! ! 0   - I 0.w.I ; ! ! ! ! ! ! ! ! ! ! 8 B y.t.w.t.J o y ..]   $ l.C.*X6 : $.",
"[.3.-.e o I e.w.w.4   9 ! ! ! ! ! ! ! ! ! ! ! ! ! ! ! 0   - U w.w.I < ! ! ! ! ! ! ! ! ! ! 8 B t.0.w.t.J o > $.]   $ a.s.%X6 : %.",
"[.3.=.e o I w.e.0.4   8 ! ! ! ~ ! ! ! ! ! ! ! ! ! ! ! 0   , U w.w.I < w ! ! ! ! ! ! ! ! ! 9 n t.0.0.e.L X 6 o.]   # a.C.%X7 5 %.",
"'.=.o.; o M G G G 2   8 ! ! ! ! ! ! ! ! ! ! ! ! ! ! ! 0   = Z G D S ; ! ! ! ! ! ! ! ! ! ! 9 v I G G H S o u o.] X f %X=X5.  5 O.",
"'.5.1.e o M A A A 3 % 9 ! ! ! ! ! ! ! ! ! ! ! ! ! ! ! 0   = Z A D M ; ! ! ! ! ! ! ! ! ! ! 9 v L D D G M X i 2.%.& ' 1X1X}   5 <.",
"]./.5.u o D 0.9.9.3 % 9 ! ! ! ! ! ! ! ! ! ! ! ! ! ! ! 0   - F 9.9.L ; w ! ! ! ! ! ! ! ! ! 9 n w.9.9.0.F X ; s i & 6 O.O.q   5 ,.",
"[.7.1.e o I t.w.w.4 % 8 ! ! ! ! ! ! ! ! ! ! ! ! ! ! ! 0 % - I w.w.I < a ! ! ! ! ! ! ! ! ! 8 B u.w.w.r.I X X     % % %   %   : >.",
"'.4.,.e o I t.w.w.4 % 8 ! ! ! ! ! ! ! ! ! ! ! ! ! ! ! 0   = I w.w.I e ! ! 0 0 w ! ! ! ! ! 8 n u.w.w.r.I o         % 9 q 8   : <.",
"'.4.,.1 o I e.w.w.4 % 9 ! ! ! ! ! ! ! ! ! ! ! ! ! ! ! 0   , U w.w.Y < w ! 9 8 w ! ! ! ! ! 8 n u.w.w.r.I X 7 ' ' % % ! ! w   : <.",
"[.4.,.> o I t.w.w.3 % 0 ! ! ! ! ! ! ! ! ! ! ! ! ! ! ! 0 % = I w.w.Y < ! ! 5 : 0 ! ! ' ! ! q B u.w.w.r.I X 6 :.] % % ! ! w   : %.",
"'.4.,.e o F G G J $ % 8 ! ! ! ! ! ! ! ! ! ! ! ! ! ! ! 0 % = Z G G K < a w 8 : 0 ! ! ! ! w 9 b 9.G G H F X y =.$._ ~ 5 5 9 ^ ] >.",
"'.4.,.e o m Z M Z 2 % 8 ! ! ! ! ! ! ! ! ! ! ! ! ! ! ! 0   = m Z Z M ; a w 8 : w ! ! ! ! ! 8 v G Z M A z o u -.-.-...% % 5 =.1.1.",
"'.4.,.e o Z G D D 3   9 w w w w w w a ! w 0 ! 0 ! w ! 0   = Z D D S ; ! w 8 8 0 ! ! ! ! ! 8 b H A G H S o u ,.,.1.$.u 6 s <.1.1.",
"'.1.*.< o I q.9.9.4 . : 8 8 8 8 9 5 8 8 8 8 9 8 8 8 8 : % = F 9.9.D : w ! 0 w ! ! ! ! ! ! 8 n w.9.U 0.F X y =.=.*.$.] ]  .=.>.>.",
"(.-.$.; o U e.w.w.4 . % % % %           % . %   .   %     = U w.w.I e a ! ! ! ! ! ! ! ! ! 9 B u.w.e.t.I o y &.$.$.&.$.$.$.*.=.*.",
"}.7.3.e o U u.e.t.m 3 3 3 3 3 3 4 3 3 2 2 3 3 3 4 3 3 3 3 v 9.w.w.I < ! ! ! ! ! ! ! ! ! ! 9 B u.w.w.u.I o p 2.5.`.`.5.5.1.1.5.`.",
"{.6.,.1 o I e.w.w.w.0.w.w.0.w.w.w.q.U G G 0.w.w.w.w.w.w.w.w.w.w.w.U 1 a ! ! ! ! ! ! ! ! ! 9 V r.w.w.r.Y o u 1.5.`.^.7.4.1.1.2.6.",
"'.,.*.e o I 9.9.9.U 9.9.U 9.9.U 9.9.H G G 9.9.9.U 9.U 9.9.9.9.9.9.D e a ! ! ! ! ! ! ! ! ! 9 n w.9.9.w.G o e $.$.=.2.=.=.&.*.*.*.",
"[.,.*.e o m Z Z Z Z A Z Z A A Z S Z Z Z Z Z Z Z Z A Z A A D Z D D M o ! ! ! ! ! ! ! ! ! ! 9 v G Z D G M X y ..o.$.$.+.*.*.*.&.*.",
"[.1.*.; o M G G G G G A D D G G G G G G G G G G G A D G G G G G J M e ! ! ! ! ! ! ! ! ! ! 9 b H G G H S o e $.$.&.&.&.*.*.*.*.*.",
"[.1.=.> o U t.e.t.t.w.9.G 9.t.e.u.e.w.u.w.e.e.e.w.H H e.e.e.e.e.e.I e a ! ! ! ! ! ! ! ! ! q B a.e.t.r.D o y $.*.*.*.&.*.;.*.;.;.",
"[.3.;.e o U e.t.w.t.w.9.G 9.t.w.w.e.e.u.e.e.e.w.0.H H e.e.e.e.e.w.I ; a ! ! ! ! ! ! ! ! ! q B u.e.w.r.I X y $.*.*.*.=.*.*.*.,.<.",
"[.3.<.e o D w.9.9.9.9.G A Y 9.U 9.9.9.U 9.9.9.9.I D L 9.9.9.9.U U V ; q a w w w 0 0 0 0 0 5 v q.U U 9.N o y $.*.*.*.>.<.<.>.,.,.",
"[.4.<.e o < + + + + + + + + + + + + + + + + + + + + + + + + + + o o X & & &     & & % % % % - o + + + + o y *.=.>.>.>.>.<.>.>.1.",
"[.,.+.t < 1 1 1 1 1 1 1 1 2 1 1 < 1 < < < e e 1 1 1 < 1 1 1 e e e < 6 5 5 5 5 5 5 : 6 : 5 : > < 1 1 1 1 > s $.*.%.*.*.+.&.%.%.*.",
";.| ' d ( ( ( / / ( ( ( ( / ( ( d d d f f f d f d d / d d d f d / d d / d / d d ^ ^ / / / / ^ d d d / / ^ _ ` ' ' ' ' ( ' ' _ ' "
};
