/* XPM */
static char *result[] = {
/* columns rows colors chars-per-pixel */
"64 64 63 1 ",
"  c #33363E",
". c #35393F",
"X c #343740",
"o c #363A42",
"O c #393C44",
"+ c #454C56",
"@ c #464E5B",
"# c #484F5B",
"$ c #485057",
"% c #47505E",
"& c #4B535D",
"* c #4E585F",
"= c #51565F",
"- c #50585F",
"; c #4D5561",
": c #4F5863",
"> c #505762",
", c #535B65",
"< c #585E66",
"1 c #565D69",
"2 c #585F6A",
"3 c #576067",
"4 c #57606B",
"5 c #5A626C",
"6 c #5F686F",
"7 c #5D6571",
"8 c #5F6873",
"9 c #606773",
"0 c #616975",
"q c #606779",
"w c #646C7A",
"e c #686F7B",
"r c #67717D",
"t c #6A717D",
"y c #676F81",
"u c #677080",
"i c #6C7482",
"p c #6F7885",
"a c #6F7788",
"s c #6F7888",
"d c #707786",
"f c #717986",
"g c #747B8B",
"h c #787F8C",
"j c #777F91",
"k c #7C848D",
"l c #7F888F",
"z c #768091",
"x c #7B8393",
"c c #7F8799",
"v c #80868F",
"b c #81888F",
"n c #808791",
"m c #838A92",
"M c #8A8E96",
"N c #808799",
"B c #878F98",
"V c #888D99",
"C c #889098",
"Z c #8F96A0",
"A c #929AA4",
"S c #979FAA",
"D c #9FA8B7",
/* pixels */
"lfftifftwwwwrrrwwwriifgglxkiwwft>duwtgkfftrreewrrrrertpggprw8epf",
"nw3=&&&&;&&*;>>&;,,,,,,22,,,:,0e=95,,3324,,,,>,,>,>-;;>,,,&&$>6r",
"b5&&&&&=>;>>,,,,,,1244,23,,32229>9522,2,4,2234,2,4,,,>,>**&==>,9",
"b5&&&&&$;>>,,,,3,,22433533342<57&73,,,,24,223,2,,,,3,,,>>;*,=&&6",
"l5&&&&&=-,;,,,332244452236352,27%05,22,312455422332,,,>;>>>>&&>7",
"b5==>&==*>,,,3252455555225222,25&85444265555544255222,,,><>;=&>2",
"l5*&>,,=>>,,,2222455554223522,77&9545525522755475222,2,<>>;>>,,7",
"v5<>>>,,3,,345555788877775754787&88754457788777555553532,,,,,179",
"j55,11<2145255115777772574222265%5542255114427222277552272221155",
"h;%@%%@@@%%%%%%%@%%%%;#&#%@#;%;%@%%;&%%%;@%;@#;@@@%%%%%@;%#%;%%;",
"Sdaaaagkxppggagy5waeyuiiuaiiaafffgagggggjjaappge1qayyappuyeyiiaj",
"Aw7777797170qqy7299211272557799609809rifpe778wfe19w75555777227qa",
"b,,-;&&*=&$&&=<2,22>&&&>>>,,,,3,2243,335,,;>;,77,27<>>>,,3,,11:2",
"m<,,>,,=&=#&#$>>,,>&*>&=>>-3,25<,2,2331,,,--*&25122;,,>,,,3,<1,,",
"m3<<>>,==#&##+><>,=&&=>-,,,3325455775552,>>,>&36<75>,,,1,333,212",
"m53><<,=,&&>&+&<,,&&;>>,,,,353546565722,,2,,>;50,25,,11,23333242",
"M<2,1,,>:;;;&&,,;,;&&>>,1144557455335552,,,,,;78,121111227453224",
"M542,11,::;%&%2,&;,>&;-,:144477556766553533>>;22%,1,,11222257724",
"M9657444111,,252<252,,4315888888899996776534,,2<;195127777778777",
"n>%::;:;;;;;%%;;@@;;;;;;:,:;;;:,,;;;;;;;&&;;%&;@@%;;;%;;;;:;;;;,",
"l,,211412,11,,11,,,,,21:21,,:2,,%,1111,11111111,111,>11>11,21,:1",
"niie8wwwweeeyeyfgzgiuuuaffir00ww;tuytiaytipuiiayyadaajjayewwwypu",
"mt03,,123557777qipir078qw034119w-w7,,66535777977790wyyy7712,,5wt",
"b9&&&%&%%&;,>>>1,42,>;;;&&%&&%>5&3%+++$$&%%;;&;&;>,,1>>;%%#@+@,5",
"b5&=&;&;>>1111112,,,,1,,;;>&&&&3&,$###&&&>,>,,,<<,,<,,1>;&&*$#&5",
"n5#$%&&>>1,12122213421,2,>-&-&&,&,+$#$&&;,,,,,<1<<1111>>>;&*&#>w",
"b<#&;;;>,,1<115253445211,,>>>&;1$&$##&&&;>>:1,121121111:>;>&&#2r",
"b<#=;>>>,<111555555322,,3,>>&%;2&&#$&&==;111,12252222111,,-&&%<w",
"k<,>;>>>,14555q277755211,,::;;12;:;@$&;;%11114477557111111;;=;13",
"l221>>>12144471q552775213,1::12,;1:;&;>,111155777797q1741441>222",
"h;;;&;&;:;;:;:::,:,,,:;;,;;;&:;;@;;;;:;,:11:1::1111,1111111::::,",
"n<,,,11>,11:1:1%@;;::,,,,,,,,,:,1:11:1,,1:111:1:%;1,:1:1::1:1,,1",
"Dccxjsgggsgjgjjy7pgpgzxjzzgssagxczjggaaafppfgpkp7uxpeuiiiuipppzc",
"Aw75111,12755595,55<,22587211129yi071:::&*;%&,ww,80;+@@%&;&&,178",
"l>,411334,,,,174,<=$@&&*;;;,,:<11,,,,3:;-->&%%67207@+&&$&&&*>;:;",
"b3,324,2412,,;2,>>&$*&>=,,22212247443,,,,>>&&$><,3>+$$$&&*,*,,,3",
"m2,235334442,<2,,>##&&,>,:1<22225742,2,,<;&&&$;,>,&+###&*>>>,,2,",
"V5577555442,222,>>=&;&,>,,122595555775<<,>>>&#&,>>&@##=>>;>>2225",
"m755555556442,41=>>&;>,,,2224666965522<,2,>=>&;,>>;&##&=>>,,2224",
"M7556966555,345:>22>*>,,,35226680077752222,;=&,2;;>*&*&*-,,,,453",
"M659778554544884;221>,1,,4552807088775714874,175;:2,&;;:,3142555",
"k&@%;%;;;;;@;;;;+@##+@@+@%@@@@#%;@@%%%@+@%%%%@%@+@@@@@@@@%;%@%%;",
"n089qwq8qqqyy8y8qq9qqw7qw8ww0897;08870wwyyyyqew0q00q0q0eriiiww87",
"mfpaajxxxNNxgsuuqwwqeewqtkft88ui,fuq96wwyyaggw78euuttutipgkfeiya",
"me957997qew855223,2,1,,,,,,;;,49;05,>&&&;:352;>,2,3,,2244475<27w",
"b0297555575253324,3,<,>;,>,&&&%,;2>&&&&&;;==&,,,>,3,343,,,252579",
"b65775595655755533354,,,,>>>&>>2&2&&&&&>;>>-,,,>,,2,,42236532229",
"b67778765777655565,44,,23,>>->>3%<&&&=&-;>,>,2,2422321,255425657",
"b96787777559655553323222><>>;;;,@,;&;>;;>,,;:21124,3111257577579",
"v977q8999777577772523,,<>>,,;;;,%<>%&&;,<,,:,,,14,55222227722787",
"m06908wwww0800978q775212,4,;:,55&32,&&;,,,1222222235577577577899",
"v22242223552422241442,:,,,,;:,2,@<<>&&%;;;,:::,2,1,2111111512225",
"h>;;;&;;;;%;:;;@@%;;;;;&%;;;;;:;@;;;%@%%;;;;%%>;@;%%;;%%%;%&;;::",
"Aewweqq9w00w0ee717qq80etiiuwqyuy0yy8yy8y0qq8w0e7:5yyyyyyapuw90ya",
"Z099q987759555w0279745wruiw080w0qq8q88q8080ww0t91481177yaauw78qe",
"n,,>,>,;>&&%#@,2,,,#@%&=;>>*::,;,,,,,,22,,,12272;%%@%%%%,2,,:,;,",
"m,3,,,,,=>;&>#>,=>>&#&&***->:,,:,,2,,333,,214492&==#&&%;;&>>,,,,",
"M431,1,,><,,;#><>>&@&&&&*>>>,,,,4,21,43322224421>&=#&&;:,,>>,,<<",
"M521441121,;>&,,>>&@$=&==>>,,,112222277554525271>>>#%;::,,;<<>,<",
"m54414442,,,>;,,>>=@$&==>=>,>,,,3522577544575571;>>=&;::<,,2<222",
"M655447:,1,:>;<;;2,;%&&>>*>,:,,44111575447757271#=>&;:::3:41,575",
"M5464474141:;:12:22:&&;>>,,311447475787578777771>>,,:11144444447",
"V724115111111:,1&=,&&*&&;::,::1:111111111151111>%>;>:1144443,4:4",
"<O  OOoXoOOOOoOX ..   ..  XXXXXXXXXXXXXXXXXXXXXXXXXXooooooO..OXo"
};
