/* XPM */
static char *result[] = {
/* columns rows colors chars-per-pixel */
"64 64 221 2 ",
"   c #040F1E",
".  c #05101F",
"X  c #061523",
"o  c #091725",
"O  c #0B1926",
"+  c #0E1B2A",
"@  c #151C26",
"#  c #1B1A26",
"$  c #121E2B",
"%  c #161B28",
"&  c #2A1D26",
"*  c #2C1E28",
"=  c #261D27",
"-  c #331E27",
";  c #15212D",
":  c #1A222C",
">  c #192127",
",  c #0E2233",
"<  c #122434",
"1  c #1B2431",
"2  c #112739",
"3  c #132A3C",
"4  c #1D2D3A",
"5  c #1D2835",
"6  c #27262D",
"7  c #332029",
"8  c #3D262B",
"9  c #212A36",
"0  c #242E3A",
"q  c #2B2B35",
"w  c #25313B",
"e  c #29323D",
"r  c #2E383F",
"t  c #31343C",
"y  c #333A3E",
"u  c #3B3A38",
"i  c #442327",
"p  c #442429",
"a  c #4C2529",
"s  c #4D2B2B",
"d  c #432929",
"f  c #532429",
"g  c #5C262A",
"h  c #5A2B2C",
"j  c #56312E",
"k  c #583731",
"l  c #413432",
"z  c #62262A",
"x  c #69292C",
"c  c #66292C",
"v  c #6C322F",
"b  c #763432",
"n  c #712F31",
"m  c #3B403E",
"M  c #554737",
"N  c #544A3B",
"B  c #4B4336",
"V  c #79523C",
"C  c #6D4938",
"Z  c #162F42",
"A  c #163246",
"S  c #19354A",
"D  c #1A354A",
"F  c #1D3E55",
"G  c #2D3642",
"H  c #2F3944",
"J  c #263541",
"K  c #343B44",
"L  c #393D45",
"P  c #363E4A",
"I  c #3A3F49",
"U  c #313741",
"Y  c #1E4057",
"T  c #1F4159",
"R  c #36404A",
"E  c #3B434C",
"W  c #3B4348",
"Q  c #24445A",
"!  c #3E4652",
"~  c #3D4952",
"^  c #42494D",
"/  c #46484A",
"(  c #58554C",
")  c #434B54",
"_  c #464E5A",
"`  c #494F59",
"'  c #494D50",
"]  c #465056",
"[  c #4A5155",
"{  c #4C535D",
"}  c #42535E",
"|  c #535453",
" . c #50555F",
".. c #585957",
"X. c #574F4A",
"o. c #6A5B45",
"O. c #765A48",
"+. c #766448",
"@. c #6B645B",
"#. c #74695C",
"$. c #4E5662",
"%. c #4F5863",
"&. c #445661",
"*. c #505762",
"=. c #535B65",
"-. c #555E69",
";. c #585F6A",
":. c #5C5D67",
">. c #57606B",
",. c #5A626D",
"<. c #566067",
"1. c #5D6571",
"2. c #5F6874",
"3. c #6B6A65",
"4. c #716D65",
"5. c #7E796F",
"6. c #797369",
"7. c #616771",
"8. c #626975",
"9. c #656D7A",
"0. c #666D7C",
"q. c #69717D",
"w. c #67707C",
"e. c #83503D",
"r. c #966C49",
"t. c #9C724D",
"y. c #93734E",
"u. c #9A7D55",
"i. c #957753",
"p. c #8D6A49",
"a. c #A47851",
"s. c #A87C53",
"d. c #AA744C",
"f. c #827E73",
"g. c #80776B",
"h. c #7F817B",
"j. c #9E8156",
"k. c #A5875B",
"l. c #A98759",
"z. c #AA8154",
"x. c #B68959",
"c. c #BA935F",
"v. c #8A8578",
"b. c #998D7B",
"n. c #98907F",
"m. c #A4927D",
"M. c #C58C57",
"N. c #D6995C",
"B. c #D7985C",
"V. c #C5905B",
"C. c #E9A05F",
"Z. c #C69B63",
"A. c #D39D63",
"S. c #D8A567",
"D. c #CEA166",
"F. c #ECA361",
"G. c #EAAC69",
"H. c #E3B06E",
"J. c #EBB36E",
"K. c #F2B56E",
"L. c #EEB570",
"P. c #F4B770",
"I. c #F5B871",
"U. c #F8BA71",
"Y. c #6C7482",
"T. c #6F7888",
"R. c #727985",
"E. c #747C8A",
"W. c #787F89",
"Q. c #676E80",
"!. c #7C838B",
"~. c #7D8490",
"^. c #81868F",
"/. c #8B8B83",
"(. c #909189",
"). c #999181",
"_. c #818791",
"`. c #828A93",
"'. c #8A929D",
"]. c #918E84",
"[. c #A99E8B",
"{. c #A79985",
"}. c #B79E83",
"|. c #BAA387",
" X c #BDAC93",
".X c #B3A792",
"XX c #BDB39A",
"oX c #BEB197",
"OX c #AEA18B",
"+X c #9199A6",
"@X c #C9A988",
"#X c #D3B28F",
"$X c #C2AF94",
"%X c #C4B59B",
"&X c #C6BA9E",
"*X c #C7B498",
"=X c #D5BD9D",
"-X c #D7B997",
";X c #CABDA1",
":X c #C7BCA3",
">X c #DDC19E",
",X c #E1C19D",
"<X c #D4C3A5",
"1X c #DAC5A5",
"2X c #DCCBAA",
"3X c #D9C8A8",
"4X c #CDC1A4",
"5X c #E4C5A1",
"6X c #E9CAA5",
"7X c #ECCFA9",
"8X c #E5CBA8",
"9X c #E4D0AF",
"0X c #EED1AA",
"qX c #E5D4B1",
"wX c #EBD5B2",
"eX c #EDD9B5",
"rX c #F4DBB5",
"tX c #F7DFB8",
"yX c #F6DBB4",
"uX c #F7E0B9",
"iX c #FCE2BA",
/* pixels */
"!.R.q.q.w.q.Y.9.8.8.2.8.8.9.8.8.8.9.0.0.Y.Y.R.R.E.E.E.Y.9.9.q.w.;.w.w.9.w.R.R.R.Y.q.9.9.9.9.9.9.9.9.9.8.8.w.q.T.R.q.9.2.,.9.Y.R.",
"!.w.,.=.%. .=.%.$.%. .%.=.=.=.=.%.=.-.-.;.;.,.,.,.,.>.>.-.,.7.9.=.7.,.;.=.,.,.>.;.-.:.=.=.=.=.>.;.=.=.=.=.=.=.<.<.=.=.{ { -.1.9.",
"!.7. .{ { { {  .{  .%.=.=.=.=.=.%.-.-.-.-.=.;.=.<.:.=.;.;.=.;.7.=.,.,.;.=.=.=.;.-.-.-.-.;.=.=.=.=.=.=.=. .%. .=.%.$.{  .{ =.<.7.",
"!.1.{ { { { { { =.{ =.%.=.-.=.=.=.-.-.>.;.;.;.-.<.<.=.<.;.=.,.,.*.,.,.=.=.;.=.=.-.-.-.-.=.;.;.=.=.;.=.<.=.=.=.=.%.$.{ =. .{  .,.",
"!.,. .{ { { {  . .=. .=.=.=.-.<.-.-.-.-.;.;.;.-.=.,.,.;.;.=.;.,.=.,.,.;.<.;.;.;.,.-.;.,.;.;.-.-.<.<.;.=.=.=.=. .=. .*. . .{ *.,.",
"!.,. . .{  .{ {  . .=.=.=.=.-.<.-.,.,.>.1.;.1.;.<.>.>.>.;.=.;.>.=.,.,.>.>.,.>.<.;.;.1.,.;.;.;.;.,.>.;.=.:.=.=.=.=.=.*.$.{  .*.,.",
"!.,. .{ %.=. . .=. .=.=.=.;.>.;.-.,.,.,.;.1.;.-.>.,.,.>.<.;.>.,. .,.,.,.>.,.>.,.;.;.;.1.1.1.;.1.,.;.;.;.=.;.=.=. .*.$.$.*.*.=.,.",
"!.7.<.=.%.=.=.=.=.=.=.<.>.>.,.>.,.1.1.1.1.1.,.1.,.,.,.,.,.,.7.,.=.,.,.,.,.>.>.,.1.1.1.1.;.1.1.;.,.,.,.,.>.<.<.=.=.=.=.=.-.-.,.8.",
"E.1.-.%.*.-.=.=.=.<.-.-.-.-.-.-.-.1.1.1.,.-.-.-.-.=.-.%.-.-.-.-.{ =.-.-.-.=.=.-.-.-.-.-.-.-.-.-.-.-.,.>.>.-.-.-.-.-.-.=.-.-.-.1.",
"E.,.=.%.$.%.$.$.%.%.%.%.%.%.$.$.{ $.$.$.$._ P P P P P P P P P I P P P P P P P P P P P P P ! $.$.{ $.$.$.$.$.$.%.%.%.$.$.$.$.$.%.",
"+XY.Q.Q.Q.Q.Y.R.T.Q.Q.Y.Y.Q.Q.Q.;.8.0.0.Q.) + + + $ + $ + $ % + + + + + + + % O + + + + o K Q.Q.-.2.Q.0.Q.Q.q.w.0.8.8.8.Q.Q.Q.T.",
"'.0.1.1.1.2.,.2.1.-.1.8.2.2.9.1.;.1.=._ P P # # # # # # # # # # # # # # # # # = # # % # # G $.$._ -.8.1.,.>.,.,.1.1.1.,.,.1.2.T.",
"^.,.=.=. .=.{ =. .{ {  .$.*.;.;.-.-.G ; % * f f f f g f g f f f f f g f f f f f f f f f f 8 % % < ) ,.=.=.=.=.=.<.<.<.=.-.-.=.,.",
"!.,. .=.=.*. . .{ { ` ` _ _ $.$.) ) q # # - z z z z z z z z z z z z z z z z z z z z z z z p # % % U ` ) { =.=. .=.=.=.=.=.-.=.%.",
"^.,.<.;.=.*.=. . .{ `  ._ _ ` I % 1 8 f f g z z z z z z z z z z z z z z z z z z z z z z z g f f a 7 1 1 E =.=.=.=.;.=.<.-.-.-.-.",
"^.7.;.=.=.=.=.*.=.{ {  ._ ) ) G % % p x x z z z z z z z z g z g z z z z z z z z z z z z z z z z g * # # K { { *.=.;.<.>.;.;.;.;.",
"^.7.<.-.-.=.=.=.$.$.$.$.P 9 9 * 8 p g c x z f f f f f a a a a a f f f f g g g f f a f f f f g z g p 7 7 * 0 0 ! -.;.;.,.;.-.;.;.",
"^.7.<.<.=.-.=.=.$.$.$._ G O o & g z z z x g i i p i s j s i i i p p a a f g f d p i i p i i g g g f a a = o O U -.-.-.;.7.1.;.;.",
"^.7.,.<.>.-.-.-.-.-.=.$.G O % & g g g g z g i i d i V d.V d i i p p p p a f f d i p p p p a h z g g g f & % % H -.,.1.1.,.1.1.1.",
"!.=. .=.=.%.%.%.$.$.$.$.e O o & g g g g g g i i a s e.B.r.d i i p p p d a f f p i p i p d p f g g g z f & O % G { =.%.%.*.%.%.%.",
"!.,.-.-.-.-.>.-.-.-.-.-.G O O & g g g g f v e.r.t.t.V.G.V.t.y.t.O.a p a a a a p p k p.t.t.O.h f h a f a = O % H %.-.-.-.-.=.-.-.",
"^.Y.0.8.2.2.2.2.8.0.8.8.P % O & g g z g g b d.G.K.K.K.K.K.J.K.I.x.j s s s s s s s o.S.G.J.x.v s h s p p = # # ! 9.8.1.8.8.9.Q.Q.",
"^.q.8.;.-.-.-.-.:.;.1.1.P O o & h g h f s h e.S.I.K.I.I.I.I.I.I.S.s.a.a.a.a.a.a.a.x.J.K.K.S.d.d.r.k = & U ! ! ` -.>.-.-.-.1.8.0.",
"^.7.*.{ { _ $.$.{ $.*.*.G O O * c c g f a p v S.K.K.I.K.K.J.J.J.L.I.P.P.I.P.K.P.P.K.J.J.J.G.F.F.A.M o + P =.$.$.$.$.$._ ) _ *.1.",
"!.7.{ { ` $.$.{ *.=.=.=.G + O 7 n n x f i a C S.U.P.P.P.c.+.o.o.u.J.I.I.I.I.K.U.I.Z.+.o.o.y.B.F.B.M o O K *.*.$.$.` { { [ _ $.,.",
"!.,.{ [ ` { { $.*.=.=.-.G O O 7 b b n j h e.x.G.P.P.K.K.i.> o O X.H.K.I.I.I.I.K.J.u.% O @ M N.F.B.M o O H -.=.=.$.$.{ { { { =.8.",
"!.,.{ { { $.*.*.=.=.-.=.G O o * n n b t.s.B.C.K.P.P.P.K.i.+ X X N H.K.I.I.I.I.I.J.j.; X X B N.F.B.M o o P -.=.=.*.$.{ { { { -.9.",
"!.;.{ { { $.*.*.=.=.-.-.P + O = f f k c.G.C.F.G.P.K.K.K.i.6 % $ o.H.K.K.I.I.K.I.K.j.6 > @ M N.C.B.M o o K -.=.-.=.=.*.{ { { -.8.",
"W.,.=.*.$.*.%.=.=.-.-.-._ G G G - & l x.J.F.C.G.K.P.P.P.Z.u.u.i.x.P.P.P.I.I.I.I.P.D.u.i.i.z.S.F.B.M o o P -.-.-.-.-.%.$.{ $.-.-.",
"!.,.-.=.*.*.*.=.-.-.,.-.-.-.-.P O X : +.z.z.M.A.P.P.I.I.I.I.I.I.I.P.P.P.I.I.I.I.I.I.I.K.I.N.a.t.p.u o O P -.,.-.-.-.-.-.=.-.-.-.",
"W.;. .*.` $.$.$.*.%.=.=.=.$.$.P + + + 1 6 u C t.S.J.J.I.I.I.P.I.I.I.P.U.P.P.P.P.I.P.L.H.H.j.6 > : $ O @ P -.-.%.=.=.-.$.%.-.*.=.",
"!.,.;.;.-.-.-.-.-.-.-.-.-.-.-._ I I 5 o o < U / ( ..k.I.I.I.I.U.U.U.U.U.U.U.U.P.I.S.i.o.( m + $ K ! ! ! &.-.-.-.-.-.-.-.-.-.-.;.",
"+X~.E.R.Y.T.Y.q.T.Q.Y.T.T.Y.Y.1._ &.w o X + A S A 4 ( k.l.l.l.k.l.l.l.l.l.k.l.l.k.i.X.J A 3 o 1 ~ 1.Y.0.2.9.9.2.9.9.9.9.w.Q.T.E.",
"'.Y.8.1.>.>.,.<.>.,.1.1.1.1.1.) ; $ o X X , S F S A 3 > > @ > > @ $ % > > > @ @ > 5 F D F 3 X o $ ) 1.%._ $.$.$.%.%.%.=.-.>.1.9.",
"~.1.-.=.-.-.=.<.-.-.=.=.` ` _ P , , w K H W ~ &.} } ~ K r K y y y y y y y y y y y W } } } ~ y u t E _ ! ! [ _ { _ { { { %.=.%.=.",
"!.,.-.-.<.-.:.;.=.-.-.=.K ; $ < S J h.XX%X&X4X:X4X:X%X XoXoX&X%X&X&X*X&X%X%X$X$X$X$X&X&X%X X|.m.m./ < ; H _ [ [ { $.%.%.=.=.=.=.",
"!.1.-.;.>.,.;.<.-.$.) ) ^ L L ^ &.-.].XXXX4XuXiXqXXXn.v.f.).9XeX4X9XuX2X<XuX3X{.m.{.). X0X5X@X-X-XX.O O 0 W E _ { *.*.*.=.=.-.=.",
"_.7.,.,.1.,.;.>.-.K $ 1 4.%X&X=X4X:X6.r e 3.9XiX.X} 4 , ; / &X%X..n.qXv.3.3XOXK 4 4 4 ..>Xm.( m.>Xb.6.3.u $ : K { {  . .=.-.>.>.",
"^.7.,.,.,.,.7.,.=.J X O f.wXtXtXiXeX6.+ X | qXiX[.w [ v.( W &X.Xw h.qX3.W <X[.w R 6./ ' >Xn.w v.0X5X5X-X(   O e { =.=.=.;.;.;.>.",
"_.9.,.,.,.7.1.,.=.e X O g.rXtXtXiXeX6.+ + | qXiX[.w 6.2Xv.^ &X.Xq h.qX3.~ <X[.w | >X4./ 4Xn.q v.0X0X0X1X|   o e { =.=.=.;.<.>.,.",
"_.8.,.,.,.1.1.>.-.J . O 5.wXtXyXtXqX6.@ X | 9XiX.X^ 4.%X4.W &X.Xq #.XX..^ >X[.w [ $X@.' =Xn.0 v.0X7X7X1X|   X e [ =.-.-.-.-.-.>.",
"W.=.{ $.%.%.%.%._ 0 X O 6.wXyXyX7X8X4.O o | 9XiX9X.X..R 4 W &XOXw 4 R 4 ~ 1X[.4 4 [ r ~ >Xn.r v.0X7X7X>X|   + w _ %.%.%.$.$.$.%.",
"!.9.1.8.2.Q.9.2.1.G . O 6.8X0X7X5X>X4.@ X | 9XiXiXwXv.{  .4.3X&X..] ] ] 4.3X X( ^ ' ~ 4.>X|.5.|.6X6X5X=X(   o K 1.w.Y.0.8.8.2.2.",
"_.R.q.Y.Y.T.E.E.Y.I X O 6.=X5X=X#X@X@.O X | 9XiXuXrX2X3X3X2XrXwX3X<X<X>X3XeX0X4X*X*X$X-X5X,X-X-X#X#X#X@XX.X o P 0.T.R.Y.Q.0.Q.Q.",
"^.q.7.1.1.2.8.2.1.H X O 6.-X,X-X@X@X@.+ X | 9XiXuXuXuXiXtXtXtXuXuXuXuXuXuXuXuXyX7X6X7X8X6X5X5X>X#X@X@XZ.X.  . r =.1.8.,.;.1.1.9.",
"^.9.,.1.1.1.,.1.;.) 0 w ( 6.6.#.@.@.u o X K /.(.(.(.(.(.(.(.(.(.(.(.(.(.(.n.(.(.v.v.v.v.v.v.5.6.#.#.#.3./ 9 0 W =.<.<.>.;.,.;.8.",
"W.7.1.1.1.,.,.1.,.>.=.=.K $ $ O O O o X X < Q Q Q Q Q Q Q Q Q Q Q T Q Q T Q Q Q Q Q Q Q Q D ; + + + O $ R =. .=.>.>.>.>.;.,.,.7.",
"^.8.1.1.1.1.1.,.1.,.7.,.P $ O + + O X X X , F T T T T T Q Q T F Y Y Y Y Y Y Y T Q T T T T A X X O + O $ E >.=.;.>.>.>.;.,.,.,.1.",
"^.8.7.7.1.1.1.1.1.,.,.1.$.! I ! ! P 1 X X , T T T T T T F F F Z 2 , 2 2 3 , S Q T T F T T S O + H E P ! &.-.-.-.;.1.,.,.;.;.1.2.",
"W.8.7.7.2.2.1.8.1.1.1.1.1.1.1.,.,.-.e X X , T T T T T T F F S , X X X X X X 3 T T T T F T S o $ ` -.-.-.>.-.;.;.;.1.1.1.1.1.1.1.",
"!.9.7.,.9.2.8.8.8.8.8.8.1.1.1.1.1.-.J o X + A A A A S A A A 3 4 w w 0 $ X X , A S S S S S 3 o ; _ -.>.,.,.,.,.,.;.1.;.;.1.2.2.2.",
"W.,.;.;.-.-.-.1.,.-.-.-.;.-.-.-.-.%.0 o X X X X X O O X o O o H ~ [ ) 1 X X X o X X o o o X X $ ) %.%.*.-.-.-.-.-.-.,.-.-.-.-.-.",
"W.;.=.%.=.%.$.%.%.%.%.*.%.%.%._ _ _ 0 X X X X X X X X X X O X e ! ) ! 5 X X X X X X X X X X X + 5 J J P $.$.$.$.$.$.$.$.*.=.=.-.",
"'.w.8.7.2.2.2.1.8.1.1.8.1.;.1.%.{ _ 0 o X X X X X X X X X X X r _ $.) 5 X o X X X X X X o X o X X X o 0 =.-.>.2.Q.Q.Q.9.2.2.Q.Q.",
"'.9.7.1.2.1.1.1.1.1.;.;.-.*.-.*.{ _ w ; $ + ; ; < < $ ; , ; ; U _ $._ J $ $ $ $ $ , , ; ; $ ; $ $ $ ; J $.$.=.1.Y.Y.Q.8.1.2.1.0.",
"W.,.:.=.%.-.%.%.*.{ *.*._ _ *.*.[ [ E K H U K K R K K K K R K ~ ) ) _ I P R R R P P P P P I ! I K K H I _ _ { $.-.-.-.=.=.=.*.%.",
"!.,.<.=.%.=.=.%.*.*.*.{ *.{ *.*.` ` ) ! E ^ E ) ^ ) ) / ) ) ) ) _ _ [ [ _ ] ] ] _ _ _ _ _ _ ` { ) ) ) ) _ { { [ $.$.*.*.*.=.*.=.",
"^.7.<.=.<.=.=.=.=.*.*.*.{ { *.*.*.{ ` ` { _ { { { *.*.*.*.=.=.=.=.=.=.-.=.-.>.<.=.-.-.-.-.;.;.-.{ { { ` [ { $.$.*.%.=.*.:.*.=.:.",
"^.7.;.;.-.-.-.-.-.-.=.$.*.{ *.*.*.*. .` _ {  . .*.*.*.=.=.=.=.-.-.-.-.-.;.;.1.,.1.,.-.,.,.;.,.-.*.*.{ { $.$.$.=.%.=.=.=.=.=.=.=.",
"^.7.>.-.<.<.-.-.-.=.=.*.*.*.=.=.*.*.*.` `  .{  . . .*. .=.=.=.=.;.;.;.;.,.1.1.;.;.;.;.1.,.1.,.-.*.*.$.*.` $.%.=.-.%.=.-.;.;.;.,.",
"^.7.,.,.-.,.,.-.=.=.=.*.*.$.*.=.*.-.=.` [ { { *.*.{ =.=.%.-.-.-.-.>.-.-.1.,.,.<.;.;.1.;.1.:.1.*.{ $.*.{ $.$.=.%.%.-.-.<.=.>.>.,.",
"`.7.,.,.,.,.1.-.<.-.-.*.*.*.-.-.*.-.-.$.$.$.{  .%.=.=.=.=.*.-.-.>.-.1.1.1.1.1.1.1.1.1.1.1.1.1.-.{ *.*.=.%.=.=.-.<.>.>.<.;.>.,.,.",
"!.,.=.=.%.%.-.*.-.=.=.=.$.$.%.$.`  . .{ _ _ `  .{ { { { $.$.$.*.%.=.*.=.-.%.%.%.*.-.-.*.*.-.*.$._ ` { { $.%.%.=.=.=.=. . . .%.=.",
":./ L W I I I L I I I I I I I K U y L y K K y L y K L K L K L K L L L L K L K H L L L L K K L U L L L I L L P P E R L W W W L R "
};
