/* XPM */
static char *result[] = {
/* columns rows colors chars-per-pixel */
"64 64 164 2 ",
"   c black",
".  c #03070C",
"X  c #03090F",
"o  c #040C14",
"O  c #050F19",
"+  c #0F1213",
"@  c #05121C",
"#  c #0C151C",
"$  c #0E181E",
"%  c #141717",
"&  c #10171C",
"*  c #12191D",
"=  c #1C1B1B",
"-  c #24211D",
";  c #0B1721",
":  c #0C1923",
">  c #121B22",
",  c #162026",
"<  c #1B2227",
"1  c #1D2629",
"2  c #1F282E",
"3  c #1B2631",
"4  c #1D2933",
"5  c #262826",
"6  c #2F2922",
"7  c #252B2C",
"8  c #2A2E2D",
"9  c #322C24",
"0  c #302F2B",
"q  c #31312C",
"w  c #3A332A",
"e  c #252E33",
"r  c #282E30",
"t  c #273032",
"y  c #2B3233",
"u  c #313533",
"i  c #343936",
"p  c #3A3A35",
"a  c #343A3A",
"s  c #3E3F3A",
"d  c #3E403B",
"f  c #4B4437",
"g  c #44433B",
"h  c #4C463B",
"j  c #4D483C",
"k  c #514C3E",
"l  c #343740",
"z  c #373A43",
"x  c #393D45",
"c  c #3A3F48",
"v  c #3C4145",
"b  c #37414D",
"n  c #3B414C",
"m  c #3C4652",
"M  c #3F4955",
"N  c #414642",
"B  c #4E4D45",
"V  c #44474A",
"C  c #524E42",
"Z  c #525146",
"A  c #5D5645",
"S  c #54554D",
"D  c #5B5749",
"F  c #5C5849",
"G  c #424B55",
"H  c #454E59",
"J  c #494F5A",
"K  c #47505C",
"L  c #4C535D",
"P  c #50565F",
"I  c #625946",
"U  c #655D50",
"Y  c #5E6051",
"T  c #6D644E",
"R  c #73674F",
"E  c #6E6653",
"W  c #6F6855",
"Q  c #666658",
"!  c #706752",
"~  c #736953",
"^  c #7C6E55",
"/  c #716E5C",
"(  c #7D7056",
")  c #7C735B",
"_  c #4E5662",
"`  c #4F5863",
"'  c #505762",
"]  c #535B65",
"[  c #5C5D67",
"{  c #565E69",
"}  c #585F6A",
"|  c #57606B",
" . c #5A626C",
".. c #576170",
"X. c #5D6572",
"o. c #5F6874",
"O. c #7C7863",
"+. c #606772",
"@. c #626975",
"#. c #606778",
"$. c #656D7A",
"%. c #686F7D",
"&. c #67707C",
"*. c #69717D",
"=. c red",
"-. c #857355",
";. c #837459",
":. c #897758",
">. c #84785E",
",. c #8E7D5F",
"<. c #847A62",
"1. c #8E7E61",
"2. c #827D6C",
"3. c #8E8163",
"4. c #87826A",
"5. c #8B856C",
"6. c #928264",
"7. c #90876D",
"8. c #928A6D",
"9. c #8B8576",
"0. c #8E8877",
"q. c #938A73",
"w. c #9D8F75",
"e. c #9C9276",
"r. c #9A917A",
"t. c #A28F6C",
"y. c #A8936D",
"u. c #A19473",
"i. c #A79874",
"p. c #AD9A74",
"a. c #AB9D7B",
"s. c #B39D74",
"d. c #B4A27B",
"f. c #BAA67D",
"g. c #C4AB7E",
"h. c #686F81",
"j. c #6C7482",
"k. c #6E7887",
"l. c #6F7788",
"z. c #727985",
"x. c #757D8A",
"c. c #787F89",
"v. c #7C838B",
"b. c #7D8490",
"n. c #81868F",
"m. c #818992",
"M. c #888F99",
"N. c #8A929D",
"B. c #AA9E84",
"V. c #AEA385",
"C. c #AEA389",
"Z. c #B2A485",
"A. c #BAA981",
"S. c #B0A68B",
"D. c #B1A88E",
"F. c #8D95A0",
"G. c #949DAB",
"H. c #C3AC81",
"J. c #C7B38B",
"K. c #C7B794",
"L. c #CAB994",
"P. c #CFBE98",
"I. c #DEC999",
"U. c #E0C895",
/* pixels */
"v.z.*.*.&.*.*.&.o.@.o.@.@.$.@.@.@.$.$.&.*.*.z.z.x.v.z.j.%.$.*.&.[ &.*.@.&.z.z.z.*.*.$.@.@.$.@.@.$.$.$.$.@.&.*.k.z.*.&.@. .&.j.z.",
"v.%. .] ` P ] ` ` ` ` ] ] ] ] ] ] ] ] | |  . . . .| | | ] | @.@.] X. .| } |  .| | | | [ | | | ] | P | P ` ] ] | | ] ] L L ] X.$.",
"v.+.P L L L L P P L ` ` ] ] ] ] ] | ] ] [ ] | ] | P ] ] ] }  . .]  . .[ | ] ] ] ] | ] [ ] | ] | P | | P P ` ] ` ` L L L P P ] +.",
"v.X.L L L L L L ` P ` ] ] { ] ] ] ] | [ | | | [ | | | | } }  . .] |  .] ] ] ] | [ | | | | P | ] | | P | ] ] ] P ] L ] P L P P  .",
"v. .L L L L P P ] P ] P ] ] | ] ] | | |  .| | ] | | | Y } } }  .]  . .| | [ ] | [ | | | | } } } | P } ] ] ] ] ` ' ' ' P P L ]  .",
"v. .P P P P L L P P ] ] ] ] | | } |  . . . . .| | | | | } } } | ]  . .| | | |  .| | | | | | |  . . .} } ] ] ] ] ] ] ' _ L P '  .",
"v.+.P P P ] P P P ` P ] ] | | [ | |  . . . . . .|  . .| } ]  . .P  . . . .| |  . . .X. . . . . . . .| Y } ] [ ] ' ' ` ` ' ` ]  .",
"v. .| P ` ` ] ] ] | ] | | |  .|  .X.X.o.X.X...| [  . . .| | @. .]  . . . .|  . . .X.X.X. .X..... . .|  .| | | ] ] ] ] ] ] {  .@.",
"x.X.{ ] ' { ] ] ] | ..{ { ..{ { ............} } ..{ { ] { .. .} L { | { { { ....] ....{ | { | { { { ....{ { { { } } { ' { ....{ ",
"x...` _ _ ' ' _ _ ` ` ` _ ` _ _ _ _ ` ` ' ] ` _ ` _ _ _ ` ] ' ' _ _ ` ] ` ] _ _ _ _ _ _ ` ` ] _ K _ _ ` _ _ _ ` ` _ _ _ _ _ ` ' ",
"F.l.h.%.h.h.j.k.j.&.&.j.l.h.h.X.{ o.&.@.#.$.$.$.#.#.%.%.h.j.&.*.h.h.h.j.j.j.l.l.l.k.h.h.h.j.j.o...X.h.$.h.$.&.&.$.$.o.#.$.$.h.l.",
"N.%.X.X.X._ 4 4 4 4 4 4 4 4 4 4 2 2 4 4 3 3 2 3 4 4 3 3 3 3 3 4 4 4 4 4 4 4 4 4 4 4 4 4 4 4 4 4 3 3 4 3 3 3 4 4 3 e ....X.X.$.j.",
"v. .] ] ] n @ @ # @ @ @ @ @ @ @ @ @ @ @ @ @ @ @ @ @ @ @ @ @ @ @ @ @ @ @ @ @ @ @ ; @ @ @ @ @ @ @ @ @ @ @ @ @ @ @ ; ; _ { { { ' } ",
"v. .P ] ] m @ @ @ @ @ @ @ @ @ @ @ @ @ @ @ @ @ @ @ @ @ @ @ @ @ @ @ @ @ @ @ @ @ @ @ @ @ @ @ @ @ @ @ @ @ @ @ @ @ @ @ ; K Y { { ] { ",
"n. .| [ ] m @ @ ; # * > > : @ @ @ $ * * # $ @ @ @ # $ # @ O # $ $ O # : * $ * # @ @ @ # * * $ # @ # ; ; @ @ @ $ @ ; L | ] ] { } ",
"n. .| ] ] M @ @ # v 2.4.2.2.3 @ @ v 4.4.4.Q o @ @ > O.F @ @ B 2.Q o Z 4.4.4.4.N @ @ 1 4.4.4.4.O.; p 2.O.< @ t 4.a ; P | | } } } ",
"n. .| P | V @ @ ; T =.=.=.=.i @ @ W =.=.=.d.. O @ - =.u.@ @ 9.=.D.o 3.=.=.=.=.W @ @ 8 =.=.=.=.H.> D =.L.e @ h =.Z : ` | | | | | ",
"n.+.| | | m @ @ # R =.=.=.=.i @ @ W =.=.=.s.. @ @ 6 =.t.@ O 9.=.S.O ,.=.=.=.=.E @ @ q =.=.=.=.g.> D =.L.r @ h =.Z : `  . . . .| ",
"m.+. .|  .M @ @ ; R =.=.=.=.a @ @ E =.=.=.s.. @ @ 6 =.t.@ @ 9.=.S.o 1.=.=.=.=.E O @ q =.=.=.=.g.: D =.L.e @ j =.Z : ]  .X... . .",
"n.| P P ` M @ @ # R =.=.=.=.a @ @ E =.=.=.s.. O @ 6 =.t.@ O 9.=.D.o 1.=.=.=.=.E O @ q =.=.=.=.g.> D =.P.r @ h =.Z : K ] ' ` ` } ",
"v.+.] | | M @ : 1 ^ =.=.=.=.i @ , ~ =.=.=.p.% $ @ 6 =.t.@ @ 9.=.S.o ,.=.=.=.=.^ , # q =.=.=.=.f.> D =.P.y O j =.B : _ } } { ] { ",
"v.*.&.@.o.K @ Y 8.=.=.=.=.=.i 7 8.7.q.e.r.7.8.Z # 6 =.t.O @ 9.=.D.o 1.=.a.r.A.A.=.7 q =.J.r.r.2.: D =.P.t O j =.Z : { +.+.$.%.h.",
"n.*.@.| { G @ 3.=.=.* o ^ =.i q =.;.X o o p =.-.* 6 =.t.@ O 9.=.S.o 1.=.8 o C =.=.a q =.;.O o o @ D =.P.t @ h =.Z ; L { {  .@.%.",
"n.@.] L K b @ 3.=.=., O ^ =.i u =.-.o @ @ s =.-.* 6 =.t.@ @ 9.=.S.O 1.=.8 @ Z =.=.i 0 =.<.@ @ @ @ D =.P.t @ j =.Z ; G J H K ]  .",
"v. .P J K c ; 1.=.=., O ^ =.i u =.( o @ @ d =.-.* 6 =.t.@ @ 0.=.S.O 1.=.8 @ C =.=.a q =.>.@ @ @ @ F =.P.e @ j =.Z : G L J J _  .",
"v. .P L _ b ; <.=.=.> O ( =.i y =.-.X @ @ d =.-.* 9 =.t.O @ 9.=.S.o 1.=.8 @ C =.=.a u =.>.@ @ @ @ F =.P.t O h =.Z : G L L J ] @.",
"v. .J J _ c ; 1.=.=., O W =.y u =.-.o @ @ d =.-.* 6 =.t.O @ 9.=.S.o ,.=.7 O C =.=.a q =.>.O @ @ @ D =.L.r @ j =.Z : H K L K ] %.",
"v. .L P K c ; 1.=.=., O 6 f * u =.-.o @ @ d =.-.* 6 =.t.@ @ 9.=.S.o 1.=.g 7 T =.=.a q =.6.7 5 ; @ F =.L.g 5 I =.Z : H _ L L ] @.",
"c. .] ' ' n O <.=.=., @ @ ; @ u =.-.o O @ s =.-.* 9 =.t.@ @ 9.=.S.o 1.=.d.s.H.=.O.4 u =.=.a.i.1 @ F =.U.A.a.H.=.Z ; K _ ' _ } | ",
"v. .| ] ' m ; 1.=.=., @ @ @ @ u =.( o @ @ s =.-.= - =.t.@ @ 9.=.D.o 1.=.=.=.=.E O @ q =.=.=.=.8 @ D =.=.=.=.=.=.Z ; _ ` ] ] ] } ",
"*.| P L _ m O 1.=.=., @ @ @ @ y =.-.o @ @ d =.-.* 6 =.t.@ @ 9.=.D.o 1.=.=.=.=.! @ O q =.=.=.=.8 @ F =.=.=.=.=.=.Z : K { ' ] ] ' ",
"m.+.[ [ { G ; 1.=.=., @ @ @ @ y =.-.X O @ d =.-.* 9 =.t.O O 9.=.S.o ,.=.=.=.=.! @ @ q =.=.=.=.8 @ D =.=.=.=.=.=.Z : _ { ..{ {  .",
"G.b.x.l.k.] @ 1.=.=., @ @ @ @ y =.-.X @ @ d =.-.* 6 =.t.@ O 9.=.S.O ,.=.=.=.=.) 7 # q =.=.=.=.8 @ D =.=.=.=.=.=.Z : | &.&.h.l.x.",
"N.j.@.X...H @ 3.=.=., @ @ @ @ u =.-.o @ @ d =.-.* 6 =.t.@ @ 9.=.S.o 1.=.u.8.e.A.V.e q =.=.q.4.1 @ D =.I.e.5.i.=.Z : K ` { | o.o.",
"v. .| ] { M @ 3.=.=., @ @ @ @ u =.-.o @ @ d =.-.* 9 =.t.O O 9.=.S.O ,.=.8 O u A.=.a q =.>.o O @ @ D =.K.8 o f =.Z : G P ` ` { ` ",
"v. .] } | M @ 1.=.=., @ @ @ @ u =.;.O @ @ d =.-.* 6 =.w.O @ 9.=.S.o ,.=.8 @ y A.=.i q =.>.@ @ @ @ D =.K.t @ h =.Z : K P ] ] ] ] ",
"v. .} } | H @ 1.=.=., @ * , $ u =.( o   @ d =.-.* 9 =.t.@ O 9.=.S.o ,.=.8 @ y A.=.a u =.<.O @ @ @ D =.L.t @ j =.Z # H ' ] } ] ] ",
"b.@. . .X.G @ 3.=.=.< o U =.e u =.-.o @ @ s =.-.* 6 =.t.O @ 9.=.S.o ,.=.8 @ i f.=.a q =.<.@ @ @ @ D =.L.t @ j =.Z : J ] ] | } | ",
"n.@. . . .K @ 3.=.=., @ -.=.i u =.( o @ @ s =.-.* 6 =.t.@ O 9.=.S.o ,.=.8 @ y f.=.a q =.<.O @ @ @ D =.L.t @ h =.Z : K ] [ } } | ",
"m.@. . . .K @ 3.=.=., o ( =.i u =.-.o @ @ s =.-.* 6 =.t.O @ 9.=.S.o 3.=.8 @ y A.=.a q =.<.O O @ @ D =.L.t @ h =.Z : L ] ] | | | ",
"m.+. . . .K @ 4.=.=., # :.=.i i =.;.o @ @ d =.:.* 6 =.t.@ @ 0.=.S.o 3.=.8 @ y A.=.a q =.<.@ @ @ @ D =.L.t @ h =.Z : _ { { ..{ { ",
"x.[ L _ ` m @ S 5.=.~ T p.=.i 2 4.O.E T T ~ 5.k $ 6 =.g.T T Z.=.D.o ,.=.( T >.e.9.2 q =.s.T T A # D =.L.t @ h =.Z : H ` _ _ _ _ ",
"v.@.o.@.o._ @ : , ( =.=.=.=.a @ > / =.=.=.a.+ # @ w =.=.=.=.=.=.S.O ,.=.=.=.=./ * @ q =.=.=.=.f.: F =.K.t @ h =.Z : X.&.#.o.X.X.",
"m.z.*.j.j.| @ @ $ ! =.=.=.=.a @ @ ! =.=.=.s.. @ ; w =.=.=.=.=.=.S.o 3.=.=.=.=.~ @ @ q =.=.=.=.g.> F =.L.t @ h =.Z : &.j.%.%.h.j.",
"m.*.+.+.X.K ; @ # ! =.=.=.=.a ; @ E =.=.=.s.X @ O w =.=.=.=.=.=.e.o 1.=.=.=.=.! @ O q =.=.=.=.g.> F =.L.t O h =.Z : |  .} ..X.%.",
"n.$. .+.X.H @ @ $ ! =.=.=.=.a @ @ / =.=.=.s.. @ @ 9 =.=.=.=.=.=.f o 6.=.=.=.=.! @ @ q =.=.=.=.g.> D =.L.t @ h =.Z : L  .} }  .@.",
"v.+. . ...H @ @ # ! =.=.=.=.i @ ; E =.=.=.y.. @ @ 6 =.=.=.=.=.=.- o 1.=.=.=.=.E @ O 8 =.=.=.=.f.> D =.J.8 @ h =.B : P  .|  . . .",
"n.+.X.X.o.H ; @ # S B.C.C.C.e @ O S Z.Z.S.2.X @ O 5 B.Z.C.Z.Z.q.= o Q Z.Z.C.Z.S @ @ 7 B.Z.C.C.q.: N Z.e.7 @ i S.d : P |  . . .X.",
"n.+.+.+.X.K @ @ @ @ # # $ # @ @ @ ; # ; # # O O ; O # $ @ # # # O O @ ; # ; # ; @ @ @ * & # & # @ # # & @ O @ ; ; ; `  ... .X.X.",
"v.+. .+.X.H ; @ ; @ @ @ @ @ @ @ @ @ O O @ O @ @ O O @ O ; O O @ @ O @ O O @ O @ @ @ @ @ @ @ @ @ @ @ @ @ @ @ @ @ ; ; ]  . .X.+.X.",
"n.$.+. .o._ @ @ @ ; @ @ @ @ @ @ @ @ ; @ @ @ @ O O ; @ @ O @ @ O @ @ @ @ @ ; @ @ @ @ @ @ @ @ @ @ @ @ @ @ @ ; ; @ O : ` .. . .o.o.",
"v. .| | | M ; @ @ @ @ @ @ @ @ @ @ @ O @ @ @ @ ; @ O ; O ; @ @ ; @ @ @ O ; O @ @ @ @ @ @ @ @ @ @ @ @ @ @ @ @ @ @ ; : _ ] | } | | ",
"z. .] ] ] K m M G m m m M M M b c m m m m m n m m m m m m M m M m m m m m m c m m m m m m m m m b m M m M M m m M M _ ` ] ' { ] ",
"M.$.+.+.@.@.o.o.+.X.+.+.o.@.#. .{ ..o.X...@.&.&.h.h.%.#.$.o.$.#.#.#.#.#.o.o.h...o.@.+.o.@.@.@. .] | o.o.h.o.#.h.h.h.$.#.+.+.$.h.",
"M.$.+.+.X.o... .X. . . . . .@.@.} +.+. .|  .@.&.$.h.$.X.X.o.#.o.o.o.@.o.o.X.o.o.o.o.o.@.@.@.%.X.{ { ..{ ......#.h.k.%.o.X.X.o.$.",
"n. .P | ] ] ] ] _ _ ' L L K ] } ] ] ] L K L P P ] ` ` ` ` ] { ] { ] } } { { { { ] ] { } } |  .} _ _ _ J H K _ _ { { } ] ' ] ] { ",
"n. .] | ] ] ] ' P ' ' _ L L P ] ' ' ' K L K L P P P P P ] P ] ] ] ] | ] ] P | | ] ] } } ] |  .} ' J J J L L K L _ _ P ' ] ] P ] ",
"n. .| ] ] ] ] ] ' ] ] ' ' L ' ' ' P J J J L J L L P ` P ] ] ] ] ] ] } ] | | | | } } } } | |  .{ ' ' ' J L L L ` ] ` ] ' ] ] ] ] ",
"n.+.| [ | } } { } { ' ' ' _ ' ] ' P L J L L L P P ` ] ] ] ] ] } | ] } } |  . . . .} ..}  . . .{ ' ' L L L L ` ` ] ] ' ] P ] ] | ",
"n.+.| | ] | | | } ] ' ' ' _ ] ' ' ' ' J J L P P ` P P ] P ] ] ] } } | |  .+. . .} }  . . . . .[ P ' ' P L ' ` ` ] ] ] }  .[ |  .",
"n.+. .Y | | | ] | ] ] ` L _ ] ` ' { ' L K L L L P P ` ] ] ] ] } | | | |  . . .| } .. . . . ...{ L _ ' J _ ` ` ` ` { { { [ | |  .",
"n.+. .o..... .| | | ] ] ' ] ] ] ] ] { _ L _ L ] ` ] ` ] ] ] { { | | .... .X.X. ...#.X.X.+.X...] _ ' ' ' ` ] { { | { | | | | |  .",
"v...| ` ] ` ] ] ] ] ] ' _ _ ] _ L L L K K K K L L L L _ _ _ _ ` ` ] ] ] ] ] ] ] ] { { ] ] ] ] _ J J ' _ _ ` ` ` ` { ` ` ] ` ` ] ",
"[ n v v c c c x x x n x n x n x z z z z z s a x z z z z z z x z x x z x z z z z z z x x z z c z l z x z x x x b v b v v v v z v "
};
